<?xml version="1.0" encoding="UTF-8"?>
<svg width="55px" height="21px" viewBox="0 0 55 21" version="1.1" xmlns="http://www.w3.org/2000/svg" xmlns:xlink="http://www.w3.org/1999/xlink">
    <!-- Generator: Sketch 57.1 (83088) - https://sketch.com -->
    <title>American_Express</title>
    <desc>Created with Sketch.</desc>
    <g id="Page-1" stroke="none" stroke-width="1" fill="none" fill-rule="evenodd">
        <g id="Footer-metodos-de-pago-Web" transform="translate(-631.000000, -326.000000)">
            <g id="Group-17" transform="translate(-4.000000, 0.000000)">
                <g id="Group-16">
                    <g id="Group-12" transform="translate(603.240000, 326.500000)">
                        <g id="American_Express" transform="translate(32.700000, 0.000000)">
                            <path d="M0,8.99756517 L2.53852563,8.99756517 L3.11225745,7.55914344 L4.3926531,7.55914344 L4.96283445,8.99756517 L9.95846562,8.99756517 L9.95846562,7.89964483 L10.4061257,9 L12.9974269,9 L13.4428003,7.88871932 L13.4428003,8.99756517 L25.8571077,8.99756517 L25.8501271,6.64602034 L26.0903555,6.64602034 C26.2615603,6.6485176 26.3107855,6.67030619 26.3107855,6.95611759 L26.3107855,8.99756517 L32.727447,8.99756517 L32.727447,8.44804312 C33.2453943,8.73741312 34.0541191,8.99756517 35.110113,8.99756517 L37.8127426,8.99756517 L38.3916497,7.55914344 L39.6750542,7.55914344 L40.2410231,8.99756517 L45.4448081,8.99756517 L45.4448081,7.63456069 L46.2324106,8.99756517 L50.4,8.99756517 L50.4,0 L46.274595,0 L46.274595,1.0651438 L45.6978543,0 L41.4611209,0 L41.4611209,1.0651438 L40.9325824,0 L35.2108501,0 C34.2533667,0 33.4072115,0.137349297 32.727447,0.525236199 L32.727447,0 L28.7836575,0 L28.7836575,0.525236199 C28.3464082,0.125237587 27.75697,0 27.1041048,0 L12.6792086,0 L11.7070418,2.32351309 L10.7184467,0 L6.1746278,0 L6.1746278,1.0651438 L5.67184519,0 L1.79780137,0 L0,4.27387311 L0,8.99756517 L0,8.99756517 Z M49.0779014,7.72577311 L46.9718109,7.72577311 L44.1567699,2.89132757 L44.1591168,7.72577311 L41.1317096,7.72577311 L40.5551494,6.28853758 L37.4622691,6.28853758 L36.9079144,7.72577311 L35.1675825,7.72577311 C34.4408796,7.72577311 33.5267239,7.55914344 33.0146138,7.01561481 C32.4847513,6.4635955 32.218767,5.72671652 32.218767,4.5497579 C32.218767,3.59287032 32.3828709,2.72101444 33.020451,2.03283203 C33.5009078,1.51614895 34.2533065,1.27772305 35.2765037,1.27772305 L36.7110138,1.27772305 L36.7110138,2.65901996 L35.3080969,2.65901996 C34.7654768,2.65901996 34.4549009,2.7453003 34.1594898,3.04316098 C33.9099339,3.31554961 33.7341556,3.82867409 33.7341556,4.50586856 C33.7341556,5.19898306 33.8641991,5.69019409 34.1455287,6.01970754 C34.370472,6.27136891 34.7878026,6.35046962 35.1780534,6.35046962 L35.8472266,6.35046962 L37.9392356,1.27772305 L40.166042,1.27772305 L42.6799551,7.3779048 L42.6799551,1.27772305 L44.9466591,1.27772305 L47.5601659,5.76804617 L47.5601659,1.27772305 L49.0779014,1.27772305 L49.0779014,7.72577311 Z M31.4909809,7.72577311 L29.9755321,7.72577311 L29.9755321,1.27659929 L31.4910411,1.27659929 L31.4910411,7.72577311 L31.4909809,7.72577311 Z M29.1129485,3.02018618 C29.1129485,4.03913068 28.4520196,4.57778965 28.067606,4.7358662 C28.3922032,4.86597345 28.6687788,5.08847931 28.7976789,5.28182966 C29.0087212,5.59548551 29.0473551,5.89097379 29.0473551,6.45760208 L29.0473551,7.72577311 L27.5494782,7.72577311 L27.543641,6.91472551 C27.543641,6.5317707 27.5810713,5.97238447 27.3056993,5.6648469 C27.0877366,5.43378793 26.763019,5.38640242 26.225153,5.38640242 L24.626539,5.38640242 L24.626539,7.72577311 L23.1445489,7.72577311 L23.1445489,1.27778549 L26.5638317,1.27778549 C27.3186976,1.27778549 27.8800329,1.3045686 28.3616932,1.59031757 C28.8329429,1.87725274 29.1129485,2.29797861 29.1129485,3.02018618 L29.1129485,3.02018618 Z M22.1120241,7.72577311 L17.1486481,7.72577311 L17.1486481,1.27778549 L22.1120241,1.27778549 L22.1120241,2.62505723 L18.637679,2.62505723 L18.637679,3.78259965 L22.0282571,3.78259965 L22.0282571,5.10795794 L18.637679,5.10427448 L18.637679,6.39192414 L22.1120241,6.39192414 L22.1120241,7.72577311 L22.1120241,7.72577311 Z M16.043429,7.72577311 L14.5216014,7.72577311 L14.5134173,2.68343068 L12.3598468,7.72577311 L11.0553802,7.72577311 L8.89308401,2.67125654 L8.89308401,7.72577311 L5.86994936,7.72577311 L5.30205475,6.28853758 L2.20682751,6.28853758 L1.63309569,7.72577311 L0.0168496865,7.72577311 L2.67380454,1.27778549 L4.88418252,1.27778549 L7.41037177,7.38645791 L7.41037177,1.27778549 L9.83997622,1.27778549 L11.781361,5.65629379 L13.5697747,1.27778549 L16.043429,1.27778549 L16.043429,7.72577311 L16.043429,7.72577311 Z M40.0453862,4.94501172 L39.0163518,2.37701688 L37.9967652,4.94501172 L40.0453862,4.94501172 Z M27.1686151,3.92731586 C26.9658772,4.04531139 26.7244453,4.0586093 26.433728,4.0586093 L24.626539,4.0586093 L24.626539,2.62505723 L26.4573176,2.62505723 C26.7185479,2.62505723 26.9893464,2.63361034 27.1662682,2.73693447 C27.3573316,2.83420275 27.4744971,3.03479516 27.4744971,3.30599759 C27.4744971,3.5892493 27.3608219,3.81418999 27.1686151,3.92731586 L27.1686151,3.92731586 Z M4.76587365,4.94501172 L3.7491756,2.37701688 L2.73602803,4.94501172 L4.76587365,4.94501172 Z" id="path36" fill="#FFFFFF" fill-rule="nonzero"></path>
                            <path d="M29.0634425,14.2075556 C29.0634425,15.9951012 27.7796266,16.3682344 26.4804263,16.3682344 L24.629491,16.3682344 L24.629491,18.5300989 L21.7497242,18.5300989 L19.9198224,16.3985593 L18.0214118,18.5300989 L12.1448727,18.5300989 L12.1448727,12.0821309 L18.1132374,12.0821309 L19.9373702,14.1929547 L21.824002,12.0821309 L26.56474,12.0821309 C27.7432689,12.0821309 29.0634425,12.4212579 29.0634425,14.2075556 L29.0634425,14.2075556 Z M17.2693792,17.1848847 L13.6200921,17.1848847 L13.6200921,15.9027538 L16.8779185,15.9027538 L16.8779185,14.5879269 L13.6200921,14.5879269 L13.6200921,13.4189215 L17.3401715,13.4189215 L18.9617831,15.2940723 L17.2693792,17.1848847 Z M23.1506659,17.944317 L20.8759987,15.3182199 L23.1506659,12.7771697 L23.1506659,17.944317 Z M26.5494758,15.0557786 L24.629491,15.0557786 L24.629491,13.4189215 L26.56474,13.4189215 C27.1018718,13.4189215 27.4729602,13.6412416 27.4729602,14.207618 C27.4729602,14.7653212 27.1194797,15.0557786 26.5494758,15.0557786 L26.5494758,15.0557786 Z M36.5599105,12.0821309 L41.514167,12.0821309 L41.514167,13.4189215 L38.0380746,13.4189215 L38.0380746,14.5879269 L41.4274495,14.5879269 L41.4274495,15.9027538 L38.0380746,15.9027538 L38.0380746,17.1848847 L41.514167,17.1909372 L41.514167,18.5301613 L36.5599105,18.5301613 L36.5599105,12.0821309 Z M34.6836751,15.5321788 C35.0137185,15.6573469 35.2842074,15.8858442 35.4105879,16.0753435 C35.6189383,16.3925692 35.6540339,16.6842746 35.6563776,17.2528349 L35.6563776,18.5302237 L34.1687786,18.5302237 L34.1687786,17.7221218 C34.1687786,17.3343876 34.2026723,16.7620211 33.9276762,16.4643256 C33.7123548,16.2272799 33.3822513,16.1738682 32.8427758,16.1738682 L31.2521133,16.1738682 L31.2521133,18.5302237 L29.7645743,18.5302237 L29.7645743,12.0821309 L33.1879632,12.0821309 C33.9417385,12.0821309 34.489387,12.1150141 34.9751974,12.3895603 C35.440936,12.6788322 35.7334799,13.0872197 35.7334799,13.8210693 C35.73354,14.8468739 35.0746551,15.3718188 34.6836751,15.5321788 L34.6836751,15.5321788 Z M33.7860917,14.7337484 C33.5906618,14.852864 33.34361,14.864969 33.0568352,14.864969 L31.2521734,14.864969 L31.2521734,13.4189215 L33.0827363,13.4189215 C33.34361,13.4189215 33.6105533,13.4225405 33.7860917,13.5318598 C33.9791779,13.6376849 34.0938998,13.835795 34.0938998,14.1140227 C34.0938998,14.3873834 33.9791178,14.6110137 33.7860917,14.7337484 L33.7860917,14.7337484 Z M47.1765866,15.127535 C47.4691305,15.4410793 47.6213519,15.8347412 47.6213519,16.492217 C47.6213519,17.8824193 46.7857267,18.5301613 45.2910364,18.5301613 L42.4002121,18.5301613 L42.4002121,17.1459491 L45.2806399,17.1459491 C45.5650109,17.1459491 45.7604408,17.1083237 45.8868212,16.9867746 C45.986279,16.8895603 46.0623596,16.7461723 46.0623596,16.5675301 C46.0623596,16.3790915 45.9839953,16.2272175 45.8775666,16.142233 C45.7662701,16.0401517 45.6107434,15.9987826 45.3520332,15.9951635 C43.9651538,15.9478043 42.2258756,16.0402141 42.2258756,13.9986508 C42.2258756,13.0653184 42.792394,12.0821309 44.3478407,12.0821309 L47.3217768,12.0821309 L47.3217768,13.4541757 L44.6028851,13.4541757 C44.3290309,13.4541757 44.1546343,13.4662807 44.0048167,13.56961 C43.8434007,13.6752479 43.783666,13.8321136 43.783666,14.0362762 C43.783666,14.2767537 43.921765,14.4432909 44.1090821,14.5150474 C44.2634669,14.5709549 44.4296905,14.5879893 44.6825715,14.5904228 L45.4830409,14.6110761 C46.2906015,14.6353485 46.8394519,14.777551 47.1765866,15.127535 L47.1765866,15.127535 Z M53.1,17.7038395 C52.734861,18.2566758 52.0325272,18.5301613 51.0832618,18.5301613 L48.2169564,18.5301613 L48.2169564,17.1459491 L51.0716634,17.1459491 C51.352609,17.1459491 51.5514643,17.1083237 51.6708737,16.9867746 C51.7726751,16.8895603 51.8498976,16.7461723 51.8498976,16.5675301 C51.8498976,16.3790915 51.7726751,16.2272175 51.66853,16.142233 C51.5572936,16.0401517 51.4028486,15.9987826 51.1464821,15.9951635 C49.7537134,15.9478043 48.0156371,16.0402141 48.0156371,13.9986508 C48.0156371,13.0653184 48.5867829,12.0821309 50.1410877,12.0821309 L53.1,12.0821309 L53.1,10.8 L50.3505799,10.8 C49.5195821,10.8 48.91917,11.0054729 48.4908107,11.3263176 L48.4908107,10.8 L44.4295102,10.8 C43.7834857,10.8 43.0214773,10.9689707 42.6576003,11.3263176 L42.6598839,10.8 L35.4033764,10.8 L35.4033764,11.3263176 C34.8263413,10.8985247 33.855021,10.8 33.4009409,10.8 L28.6210209,10.8 L28.6210209,11.3263176 C28.1611115,10.8681374 27.1498278,10.8 26.530726,10.8 L21.1743718,10.8 L19.9495094,12.1805308 L18.8036723,10.8 L10.8,10.8 L10.8,19.7975665 L18.6516312,19.7975665 L19.9133321,18.3988782 L21.1047815,19.7975665 L25.938607,19.8 L25.938607,17.6831237 L26.4172661,17.6831237 C27.0563796,17.6927328 27.8170058,17.6684605 28.4841839,17.369517 L28.4841839,19.7975665 L32.4752329,19.7975665 L32.4752329,17.450945 L32.6660355,17.450945 C32.912907,17.450945 32.9363442,17.4655458 32.9363442,17.7158821 L32.9363442,19.7975665 L45.0593089,19.7975665 C45.8258846,19.7975665 46.6311616,19.5922184 47.0747851,19.2216434 L47.0747851,19.7975665 L50.9230478,19.7975665 C51.7224354,19.7975665 52.5030734,19.6820699 53.1,19.3831265 L53.1,17.7038395 L53.1,17.7038395 Z M53.0999399,13.4541757 L50.3892813,13.4541757 C50.1212563,13.4541757 49.9398286,13.4662807 49.7935566,13.56961 C49.636828,13.6752479 49.5758914,13.8321136 49.5758914,14.0362762 C49.5758914,14.2767537 49.7070194,14.4432909 49.9024493,14.5150474 C50.0558726,14.5709549 50.2242596,14.5879893 50.4736551,14.5904228 L51.2753264,14.6110761 C52.0852909,14.6354109 52.6283721,14.7776134 52.961901,15.127535 C53.0157464,15.1785757 53.0566713,15.2368544 53.1,15.2903909 L53.1,13.4541757 L53.0999399,13.4541757 Z" id="path38" fill="#F1F1F1" fill-rule="nonzero"></path>
                            <path d="M27.6087513,4.33514502 C27.4175534,4.48628168 27.1886296,4.5 26.9140465,4.5 L25.2,4.5 L25.2,2.7 L26.9351639,2.7 C27.1829793,2.7 27.4408967,2.7122289 27.6065255,2.84204338 C27.7888198,2.96417559 27.9,3.21455448 27.9,3.55806114 C27.9,3.91215051 27.7922443,4.19466945 27.6087513,4.33514502" id="path48" fill="#FFFFFF"></path>
                            <path d="M4.5,4.5 L3.6,1.8 L4.5,4.5 Z" id="polygon50" fill="#FFFFFF"></path>
                        </g>
                    </g>
                </g>
            </g>
        </g>
    </g>
</svg>