<?xml version="1.0" encoding="UTF-8"?>
<svg width="30px" height="27px" viewBox="0 0 30 27" version="1.1" xmlns="http://www.w3.org/2000/svg" xmlns:xlink="http://www.w3.org/1999/xlink">
    <!-- Generator: Sketch 57.1 (83088) - https://sketch.com -->
    <title>noun_Money_2149809 (1)</title>
    <desc>Created with Sketch.</desc>
    <g id="Page-1" stroke="none" stroke-width="1" fill="none" fill-rule="evenodd">
        <g id="Footer-metodos-de-pago-Web" transform="translate(-1549.000000, -322.000000)" fill="#FFFFFF">
            <g id="Group-17" transform="translate(-4.000000, 0.000000)">
                <g id="Group-16">
                    <g id="Group-9" transform="translate(1502.000000, 322.900000)">
                        <g id="noun_Money_2149809-(1)" transform="translate(51.100000, -0.000000)">
                            <g id="Group">
                                <path d="M15.0046873,10.8958784 C14.9434715,10.8825894 14.8803558,10.8804286 14.8183714,10.8894997 C14.1955952,10.8173392 13.725535,10.2914051 13.7246153,9.66573388 C13.7246153,9.36591479 13.4810636,9.12286339 13.1806272,9.12286339 C12.8801909,9.12286339 12.6366392,9.36591479 12.6366392,9.66573388 C12.6379743,10.7103669 13.3382056,11.6254929 14.3476857,11.9018853 L14.3476857,12.4447558 C14.3476857,12.7445749 14.5912374,12.9876263 14.8916738,12.9876263 C15.1921101,12.9876263 15.4356618,12.7445749 15.4356618,12.4447558 L15.4356618,11.9347968 C16.6005626,11.6912345 17.3925629,10.6084532 17.2699735,9.42702191 C17.1473841,8.24559058 16.1498659,7.34773373 14.9596723,7.34754117 C14.2775692,7.34754117 13.7246153,6.79572336 13.7246153,6.11502158 C13.7246153,5.43431981 14.2775692,4.88250199 14.9596723,4.88250199 C15.6417754,4.88250199 16.1947292,5.43431981 16.1947292,6.11502158 C16.1947292,6.41484068 16.438281,6.65789207 16.7387173,6.65789207 C17.0391536,6.65789207 17.2827054,6.41484068 17.2827054,6.11502158 C17.2812782,5.01823882 16.5110794,4.0720056 15.4356618,3.84582293 L15.4356618,3.35167507 C15.4356618,3.05185598 15.1921101,2.80880458 14.8916738,2.80880458 C14.5912374,2.80880458 14.3476857,3.05185598 14.3476857,3.35167507 L14.3476857,3.87893803 C13.2251376,4.18477067 12.502564,5.27231507 12.6572225,6.42325133 C12.811881,7.57418759 13.796043,8.43332862 14.9596723,8.43321429 C15.6333674,8.43206851 16.1835242,8.97025328 16.1958114,9.64245345 C16.2080985,10.3146536 15.6779761,10.8725038 15.0046873,10.8958784 L15.0046873,10.8958784 Z" id="Path"></path>
                                <path d="M7.07130109,7.93214483 C7.07130109,12.2798215 10.6030452,15.8043098 14.9596723,15.8043098 C19.3162994,15.8043098 22.8480435,12.2798215 22.8480435,7.93214483 C22.8480435,3.58446817 19.3162994,0.0599798531 14.9596723,0.0599798531 C10.6050802,0.064878804 7.07621012,3.586499 7.07130109,7.93214483 L7.07130109,7.93214483 Z M14.9596723,1.14572083 C18.7154267,1.14572083 21.7600673,4.18410635 21.7600673,7.93214483 C21.7600673,11.6801833 18.7154267,14.7185688 14.9596723,14.7185688 C11.2039178,14.7185688 8.15927725,11.6801833 8.15927725,7.93214483 C8.16351176,4.18585813 11.2056732,1.14994664 14.9596723,1.14572083 Z" id="Shape" fill-rule="nonzero"></path>
                                <path d="M25.5297687,17.1425534 L21.2683701,19.151785 C20.6799184,18.0597472 19.5514573,17.3648689 18.3094829,17.3297759 L14.3756331,17.2220161 C13.7525596,17.2041048 13.1414992,17.0465861 12.5876802,16.7611191 L12.187441,16.5542854 C10.1378181,15.488169 7.69508113,15.4907037 5.64768427,16.5610713 L5.67263973,15.6561062 C5.67660774,15.5121818 5.62312158,15.3725792 5.52394766,15.2680096 C5.42477375,15.16344 5.28803597,15.1024693 5.14381531,15.0985103 L0.830057816,14.979961 C0.685825717,14.9760013 0.545925659,15.0293868 0.441138823,15.1283716 C0.336351987,15.2273563 0.275263444,15.3638305 0.271314056,15.5077668 L0.0106038497,24.9545276 C0.00258739001,25.2542343 0.239380549,25.503848 0.539704176,25.5120556 L4.85339367,25.6305371 L4.86862534,25.6305371 C5.16313036,25.6303911 5.40403858,25.3963844 5.41213743,25.1025956 L5.42458116,24.650588 L6.54519661,24.0518019 C6.98493444,23.8156808 7.49945024,23.7594681 7.97996518,23.895048 L14.6717666,25.7695798 C14.6834623,25.7729049 14.6952261,25.775755 14.7071258,25.7782658 C15.1908358,25.8791662 15.6837015,25.9299001 16.1778656,25.9296602 C17.2244477,25.9303177 18.2587949,25.7051043 19.2099872,25.2694604 C19.233356,25.2586907 19.2559214,25.2462633 19.2775097,25.2322738 L28.9801491,18.9689055 C29.2218362,18.8129341 29.2999535,18.49608 29.1583732,18.2460056 C28.4380292,16.9703977 26.8405285,16.4846006 25.5297687,17.1425534 L25.5297687,17.1425534 Z M1.11333961,24.4416507 L1.34399056,16.0802237 L4.57011188,16.1689152 L4.33946093,24.5304101 L1.11333961,24.4416507 Z M18.7199899,24.2996901 C17.5381541,24.8318167 16.2183499,24.9787908 14.9480445,24.7197362 L8.27419473,22.8502259 C7.52321495,22.6383684 6.71911675,22.7261637 6.03180786,23.0950605 L5.4592604,23.4010359 L5.61259704,17.841567 C7.4271592,16.6371368 9.75466043,16.5133243 11.687244,17.5184234 L12.0874832,17.7253249 C12.7870948,18.085812 13.5589503,18.2847686 14.3459857,18.3074856 L18.2796995,18.415449 C19.3847342,18.4472332 20.3232048,19.2323047 20.5475179,20.3125778 L14.6876782,20.1512774 C14.6825783,20.1512774 14.6775465,20.1512774 14.6724466,20.1512774 C14.3720102,20.1472486 14.1251858,20.387034 14.1211487,20.6868531 C14.1171115,20.9866722 14.3573906,21.2329896 14.6578269,21.2370184 L21.1244852,21.4146049 L21.1397169,21.4146049 C21.4342219,21.4144589 21.6751301,21.1804522 21.683229,20.8866633 C21.6898052,20.6506782 21.6722157,20.4146396 21.6307341,20.182221 L26.0013384,18.1214846 L26.0141221,18.1153095 C26.6340009,17.8019336 27.3838368,17.9067328 27.8936009,18.3779909 L18.7199899,24.2996901 Z" id="Shape" fill-rule="nonzero"></path>
                            </g>
                        </g>
                    </g>
                </g>
            </g>
        </g>
    </g>
</svg>