<?xml version="1.0" encoding="UTF-8"?>
<svg width="15px" height="26px" viewBox="0 0 15 26" version="1.1" xmlns="http://www.w3.org/2000/svg" xmlns:xlink="http://www.w3.org/1999/xlink">
    <!-- Generator: Sketch 61.2 (89653) - https://sketch.com -->
    <title>Group 8@2x</title>
    <desc>Created with Sketch.</desc>
    <g id="Page-1" stroke="none" stroke-width="1" fill="none" fill-rule="evenodd">
        <g id="Footer-metodos-de-pago-Responsive-Copy" transform="translate(-262.000000, -176.000000)" fill="#8C97AD" fill-rule="nonzero">
            <g id="Group-7" transform="translate(255.000000, 176.000000)">
                <g id="Group-8" transform="translate(7.000000, 0.000000)">
                    <g id="noun_receipt_1752761" transform="translate(0.259999, 0.000000)">
                        <path d="M7.68767995,5.69457774 L7.68767995,4.01208886 C8.13612795,4.01208886 8.50303994,4.39064886 8.50303994,4.8533333 L9.31839994,4.8533333 C9.31839994,3.92796442 8.58457594,3.17084442 7.68767995,3.17084442 L7.68767995,2.32959998 L6.87231995,2.32959998 L6.87231995,3.17084442 C5.97542396,3.17084442 5.24159996,3.92796442 5.24159996,4.8533333 C5.24159996,5.77870218 5.97542396,6.53582218 6.87231995,6.53582218 L6.87231995,8.21831106 C6.42387196,8.21831106 6.05695996,7.83975106 6.05695996,7.37706662 L5.24159996,7.37706662 C5.24159996,8.3024355 5.97542396,9.05955549 6.87231995,9.05955549 L6.87231995,9.90079993 L7.68767995,9.90079993 L7.68767995,9.05955549 C8.58457594,9.05955549 9.31839994,8.3024355 9.31839994,7.37706662 C9.31839994,6.45169773 8.58457594,5.69457774 7.68767995,5.69457774 Z M6.05695996,4.8533333 C6.05695996,4.39064886 6.42387196,4.01208886 6.87231995,4.01208886 L6.87231995,5.69457774 C6.42387196,5.69457774 6.05695996,5.31601774 6.05695996,4.8533333 Z M7.68767995,8.21831106 L7.68767995,6.53582218 C8.13612795,6.53582218 8.50303994,6.91438218 8.50303994,7.37706662 C8.50303994,7.83975106 8.13612795,8.21831106 7.68767995,8.21831106 Z" id="Shape"></path>
                        <polygon id="Path" points="13.9775999 25.0431998 0 25.0431998 0 4.65919997 1.64442352 4.65919997 1.64442352 5.5085333 0.822211759 5.5085333 0.822211759 24.1938665 13.1553881 24.1938665 13.1553881 5.5085333 12.3331764 5.5085333 12.3331764 4.65919997 13.9775999 4.65919997"></polygon>
                        <path d="M11.4239999,10.8189608 L11.4239999,0.621779355 L10.2143999,0 L9.40799994,0.41451957 L8.60159994,0 L7.79519995,0.41451957 L6.98879995,0 L6.18239996,0.41451957 L5.37599996,0 L4.56959997,0.41451957 L3.76319997,0 L2.55359998,0.621779355 L2.55359998,10.8189608 L1.74719999,10.8189608 L1.74719999,11.6479999 L12.2303999,11.6479999 L12.2303999,10.8189608 L11.4239999,10.8189608 Z M3.35999998,10.8189608 L3.35999998,1.11920284 L3.76319997,0.911943054 L4.56959997,1.32646262 L5.37599996,0.911943054 L6.18239996,1.32646262 L6.98879995,0.911943054 L7.79519995,1.32646262 L8.60159994,0.911943054 L9.40799994,1.32646262 L10.2143999,0.911943054 L10.6175999,1.11920284 L10.6175999,10.8189608 L3.35999998,10.8189608 Z" id="Shape"></path>
                        <path d="M12.2303999,15.7247999 L1.74719999,15.7247999 L1.74719999,12.2303999 L12.2303999,12.2303999 L12.2303999,15.7247999 Z M2.55359998,14.8511999 L11.4239999,14.8511999 L11.4239999,13.1039999 L2.55359998,13.1039999 L2.55359998,14.8511999 Z" id="Shape"></path>
                        <rect id="Rectangle" x="1.74719999" y="16.8895999" width="2.32959998" height="1"></rect>
                        <rect id="Rectangle" x="5.82399996" y="16.8895999" width="2.32959998" height="1"></rect>
                        <rect id="Rectangle" x="9.90079993" y="16.8895999" width="2.32959998" height="1"></rect>
                        <rect id="Rectangle" x="1.74719999" y="18.6367999" width="2.32959998" height="1"></rect>
                        <rect id="Rectangle" x="5.82399996" y="18.6367999" width="2.32959998" height="1"></rect>
                        <rect id="Rectangle" x="9.90079993" y="18.6367999" width="2.32959998" height="1"></rect>
                        <rect id="Rectangle" x="1.74719999" y="20.3839999" width="2.32959998" height="1"></rect>
                        <rect id="Rectangle" x="5.82399996" y="20.3839999" width="2.32959998" height="1"></rect>
                        <rect id="Rectangle" x="9.90079993" y="20.3839999" width="2.32959998" height="1"></rect>
                        <rect id="Rectangle" x="1.74719999" y="22.1311999" width="2.32959998" height="1"></rect>
                        <rect id="Rectangle" x="5.82399996" y="22.1311999" width="2.32959998" height="1"></rect>
                        <rect id="Rectangle" x="9.90079993" y="22.1311999" width="2.32959998" height="1"></rect>
                    </g>
                </g>
            </g>
        </g>
    </g>
</svg>