<?xml version="1.0" encoding="UTF-8"?>
<svg width="39px" height="28px" viewBox="0 0 39 28" version="1.1" xmlns="http://www.w3.org/2000/svg" xmlns:xlink="http://www.w3.org/1999/xlink">
    <!-- Generator: Sketch 57.1 (83088) - https://sketch.com -->
    <title>diners-club</title>
    <desc>Created with Sketch.</desc>
    <g id="Page-1" stroke="none" stroke-width="1" fill="none" fill-rule="evenodd">
        <g id="Footer-metodos-de-pago-Web" transform="translate(-956.000000, -321.000000)">
            <g id="Group-17" transform="translate(-4.000000, 0.000000)">
                <g id="Group-16">
                    <g id="Group-11" transform="translate(918.160000, 321.100000)">
                        <g id="diners-club" transform="translate(41.900000, 0.000000)">
                            <g id="Group-2" transform="translate(9.000000, 0.000000)">
                                <path d="M19.6827337,7.66267537 C19.6827337,3.13102778 15.7924258,-0.00129870056 11.5305695,7.81597009e-14 L7.8628859,7.81597009e-14 C3.54999167,-0.00129870056 -1.42108547e-14,3.13177013 -1.42108547e-14,7.66267537 C-1.42108547e-14,11.8079322 3.54999167,15.2136274 7.8628859,15.1934881 L11.5305695,15.1934881 C15.7924258,15.2136274 19.6827337,11.8070043 19.6827337,7.66267537 Z" id="Path" fill="#FFFFFF"></path>
                                <path d="M9.69700216,11.5336768 L9.69700216,3.30459227 C11.3945841,3.93911202 12.5996884,5.54053667 12.602545,7.41885615 C12.5996884,9.29754681 11.3945841,10.8980435 9.69700216,11.5336768 M3.55531279,7.41885615 C3.55912159,5.54165017 4.76232139,3.94115346 6.45895117,3.30477786 L6.45895117,11.5320065 C4.76232139,10.8961877 3.55912159,9.29661888 3.55531279,7.41885615 M8.07826232,0.463636364 C4.13729737,0.464935468 0.943809343,3.57758979 0.942857143,7.41885615 C0.943809343,11.2597513 4.13729737,14.3718489 8.07826232,14.3729624 C12.0205603,14.3718489 15.2146197,11.2597513 15.215191,7.41885615 C15.2146197,3.57758979 12.0205603,0.464935468 8.07826232,0.463636364" id="Shape" fill="#102450" fill-rule="nonzero"></path>
                            </g>
                            <path d="M0.770017281,18.4954737 C0.770017281,17.7865687 0.381548799,17.8330723 0.00941866596,17.8255658 L0.00941866596,17.6206937 C0.331957076,17.6357067 0.662760793,17.6357067 0.986068148,17.6357067 C1.33340236,17.6357067 1.80529274,17.6206937 2.41807728,17.6206937 C4.56109341,17.6206937 5.72784448,18.9839445 5.72784448,20.3799674 C5.72784448,21.1604587 5.2482656,23.1231297 2.31831715,23.1231297 C1.89659529,23.1231297 1.50697345,23.1075675 1.1183127,23.1075675 C0.746182571,23.1075675 0.381548799,23.115074 0.00941866596,23.1231297 L0.00941866596,22.9180745 C0.505528167,22.8706555 0.746182571,22.8549102 0.770017281,22.3188374 L0.770017281,18.4954737 Z M1.58116883,22.1928749 C1.58116883,22.7998016 2.03691301,22.8706555 2.44210425,22.8706555 C4.23009743,22.8706555 4.81731734,21.5857651 4.81731734,20.4110919 C4.81731734,18.9374409 3.82413724,17.873351 2.2270146,17.873351 C1.88717674,17.873351 1.73090509,17.8964197 1.58116883,17.9048416 L1.58116883,22.1928749 Z M6.01809073,22.9182576 L6.17513121,22.9182576 C6.40655921,22.9182576 6.57224941,22.9182576 6.57224941,22.6575446 L6.57224941,20.5216752 C6.57224941,20.1750953 6.44827004,20.126944 6.14168556,19.9702233 L6.14168556,19.8438946 C6.53073073,19.7329451 6.99454794,19.5839139 7.02722464,19.560296 C7.08546608,19.5288054 7.13486566,19.5203835 7.17638434,19.5203835 C7.21732635,19.5203835 7.23443352,19.5678025 7.23443352,19.6313329 L7.23443352,22.6575446 C7.23443352,22.9182576 7.41646207,22.9182576 7.64846675,22.9182576 L7.78878447,22.9182576 L7.78878447,23.1233128 C7.50718806,23.1233128 7.21732635,23.1075675 6.92016042,23.1075675 C6.6220334,23.1075675 6.32390638,23.1152571 6.01809073,23.1233128 L6.01809073,22.9182576 Z M6.9036298,18.3067131 C6.68796347,18.3067131 6.49805403,18.1175863 6.49805403,17.9125311 C6.49805403,17.7151655 6.6969976,17.5333622 6.9036298,17.5333622 C7.1181429,17.5333622 7.30901331,17.6996033 7.30901331,17.9125311 C7.30901331,18.1256421 7.12660035,18.3067131 6.9036298,18.3067131 Z M8.5751401,20.5687281 C8.5751401,20.2772568 8.48364528,20.1987133 8.09556121,20.0489498 L8.09556121,19.8991863 C8.45096858,19.7889691 8.7900376,19.6860754 9.18773249,19.5203835 C9.21233614,19.5203835 9.23655538,19.5364949 9.23655538,19.59911 L9.23655538,20.1117479 C9.70902232,19.7889691 10.1147902,19.5203835 10.66991,19.5203835 C11.372844,19.5203835 11.6209948,20.0092204 11.6209948,20.6242028 L11.6209948,22.6575446 C11.6209948,22.9182576 11.8028311,22.9182576 12.0348358,22.9182576 L12.1838033,22.9182576 L12.1838033,23.1233128 C11.893557,23.1233128 11.6038876,23.1075675 11.3067216,23.1075675 C11.0084024,23.1075675 10.7102753,23.1152571 10.4125329,23.1233128 L10.4125329,22.9182576 L10.561308,22.9182576 C10.793505,22.9182576 10.9582341,22.9182576 10.9582341,22.6575446 L10.9582341,20.6165132 C10.9582341,20.1666734 10.66991,19.9464222 10.1974431,19.9464222 C9.9327617,19.9464222 9.51065531,20.1511112 9.23655538,20.3246758 L9.23655538,22.6575446 C9.23655538,22.9182576 9.41973717,22.9182576 9.6515497,22.9182576 L9.80032487,22.9182576 L9.80032487,23.1233128 C9.51065531,23.1233128 9.22060145,23.1075675 8.92266657,23.1075675 C8.62511623,23.1075675 8.3266048,23.1152571 8.02905446,23.1233128 L8.02905446,22.9182576 L8.17840631,22.9182576 C8.41002658,22.9182576 8.5751401,22.9182576 8.5751401,22.6575446 L8.5751401,20.5687281 Z M12.8131184,20.947714 C12.7960111,21.0187509 12.7960111,21.1366577 12.8131184,21.4048772 C12.8617491,22.1535117 13.368046,22.7681279 14.0290768,22.7681279 C14.4850131,22.7681279 14.8413816,22.5315821 15.1468128,22.2402939 L15.2625269,22.3506942 C14.8817469,22.8316584 14.4098567,23.2414026 13.7319109,23.2414026 C12.4154235,23.2414026 12.1509343,22.027183 12.1509343,21.522967 C12.1509343,19.9777297 13.2429133,19.5203835 13.8218679,19.5203835 C14.492894,19.5203835 15.2135117,19.922255 15.2208159,20.7578548 C15.2208159,20.8058231 15.2208159,20.8525098 15.2135117,20.900295 L15.1383554,20.947714 L12.8131184,20.947714 Z M14.2781888,20.6952398 C14.4850131,20.6952398 14.5090401,20.5925291 14.5090401,20.4980573 C14.5090401,20.0961857 14.2528162,19.7730407 13.7889991,19.7730407 C13.284432,19.7730407 12.9369055,20.126944 12.8377221,20.6952398 L14.2781888,20.6952398 Z M15.4116865,22.9182576 L15.6352337,22.9182576 C15.8660851,22.9182576 16.0317752,22.9182576 16.0317752,22.6575446 L16.0317752,20.4429487 C16.0317752,20.1987133 15.7259596,20.1511112 15.6015959,20.08813 L15.6015959,19.9702233 C16.2057307,19.7256217 16.536919,19.5203835 16.6124599,19.5203835 C16.6610905,19.5203835 16.6856941,19.5440014 16.6856941,19.6232772 L16.6856941,20.3325484 L16.703378,20.3325484 C16.9094335,20.0251487 17.2577289,19.5203835 17.7622959,19.5203835 C17.9693125,19.5203835 18.2338017,19.6542186 18.2338017,19.9381834 C18.2338017,20.1511112 18.0769535,20.3407873 17.8453333,20.3407873 C17.5877637,20.3407873 17.5877637,20.1511112 17.2984787,20.1511112 C17.1575844,20.1511112 16.6943439,20.3325484 16.6943439,20.8058231 L16.6943439,22.6575446 C16.6943439,22.9182576 16.8594574,22.9182576 17.0914621,22.9182576 L17.5547026,22.9182576 L17.5547026,23.1233128 C17.099343,23.1152571 16.7529697,23.1075675 16.3966013,23.1075675 C16.05734,23.1075675 15.7096212,23.1152571 15.4116865,23.1233128 L15.4116865,22.9182576 Z M18.5978588,22.027183 C18.705692,22.5473275 19.0364957,22.9891115 19.6410151,22.9891115 C20.1284749,22.9891115 20.3105034,22.7053298 20.3105034,22.4296038 C20.3105034,21.4991659 18.5069407,21.7985099 18.5069407,20.529731 C18.5069407,20.0879469 18.8798397,19.5203835 19.7897902,19.5203835 C20.0542795,19.5203835 20.4100713,19.5916035 20.7326097,19.7494228 L20.7910434,20.5527997 L20.6005573,20.5527997 C20.5179044,20.0566394 20.2284271,19.7728576 19.6984877,19.7728576 C19.3671073,19.7728576 19.0530263,19.9541118 19.0530263,20.2930021 C19.0530263,21.2159335 20.9730719,20.9316025 20.9730719,22.1690739 C20.9730719,22.6892183 20.534435,23.2415857 19.549328,23.2415857 C19.2183321,23.2415857 18.8292868,23.1310024 18.5400018,22.9735493 L18.4486993,22.0669125 L18.5978588,22.027183 Z M28.4462377,19.0472919 L28.2397977,19.0472919 C28.0821806,18.1256421 27.3952005,17.7547119 26.4687195,17.7547119 C25.5164815,17.7547119 24.134064,18.3614555 24.134064,20.2532726 C24.134064,21.8464781 25.3267642,22.9891115 26.6007719,22.9891115 C27.4198042,22.9891115 28.0990956,22.4532218 28.2647858,21.6251284 L28.4546951,21.6723643 L28.2647858,22.8232365 C27.9170671,23.0288409 26.981744,23.2414026 26.4350817,23.2414026 C24.4990821,23.2414026 23.274474,22.0509841 23.274474,20.2772568 C23.274474,18.6611656 24.7885594,17.5020546 26.4106703,17.5020546 C27.0807352,17.5020546 27.7265809,17.7076591 28.3635848,17.9205869 L28.4462377,19.0472919 Z M28.7447491,22.9182576 L28.9012129,22.9182576 C29.1336021,22.9182576 29.2992923,22.9182576 29.2992923,22.6575446 L29.2992923,18.2675329 C29.2992923,17.7547119 29.1751207,17.7389666 28.8606553,17.6523674 L28.8606553,17.5262218 C29.1914591,17.4238773 29.5391778,17.2819865 29.7129411,17.1869654 C29.8032826,17.1400956 29.8699816,17.1 29.894393,17.1 C29.9447535,17.1 29.9614764,17.1477852 29.9614764,17.2109495 L29.9614764,22.6575446 C29.9614764,22.9182576 30.1433127,22.9182576 30.3753174,22.9182576 L30.5150584,22.9182576 L30.5150584,23.1233128 C30.2346153,23.1233128 29.9447535,23.1075675 29.6468188,23.1075675 C29.3490762,23.1075675 29.0511414,23.1152571 28.7447491,23.1233128 L28.7447491,22.9182576 Z M34.0585604,22.6892183 C34.0585604,22.8316584 34.1492863,22.8391649 34.2897962,22.8391649 C34.3893641,22.8391649 34.512959,22.8316584 34.6209843,22.8316584 L34.6209843,22.9975334 C34.2646159,23.0288409 33.5862857,23.1943498 33.4288608,23.2415857 L33.3871498,23.2177847 L33.3871498,22.5795504 C32.8914249,22.9656766 32.5100682,23.2415857 31.9218873,23.2415857 C31.4753696,23.2415857 31.0119368,22.9656766 31.0119368,22.3038244 L31.0119368,20.2853125 C31.0119368,20.0802573 30.9790679,19.8830748 30.5160195,19.8438946 L30.5160195,19.693948 C30.8143388,19.6862585 31.4753696,19.6390225 31.583395,19.6390225 C31.675082,19.6390225 31.675082,19.693948 31.675082,19.8675126 L31.675082,21.9008544 C31.675082,22.1377663 31.675082,22.8155469 32.3945464,22.8155469 C32.6759507,22.8155469 33.0482731,22.6106749 33.3954151,22.335315 L33.3954151,20.2139094 C33.3954151,20.0566394 32.9984891,19.9702233 32.701131,19.8913136 L32.701131,19.7494228 C33.4451991,19.7018207 33.9094008,19.6390225 33.9916692,19.6390225 C34.0585604,19.6390225 34.0585604,19.693948 34.0585604,19.7810965 L34.0585604,22.6892183 Z M35.7052748,20.08813 C36.0358863,19.8200936 36.4829807,19.5203835 36.9385327,19.5203835 C37.8986515,19.5203835 38.4772217,20.3171693 38.4772217,21.1760209 C38.4772217,22.2086202 37.6831775,23.2415857 36.4989347,23.2415857 C35.8871111,23.2415857 35.5643804,23.0520927 35.3489064,22.9656766 L35.1009478,23.1465646 L34.9277611,23.0601485 C35.0009954,22.5951126 35.0432829,22.1377663 35.0432829,21.6569852 L35.0432829,18.2675329 C35.0432829,17.7547119 34.9185347,17.7389666 34.6042616,17.6523674 L34.6042616,17.5262218 C34.9360264,17.4238773 35.282784,17.2819865 35.4569317,17.1869654 C35.54785,17.1400956 35.6135878,17.1 35.6393447,17.1 C35.6889365,17.1 35.7052748,17.1477852 35.7052748,17.2109495 L35.7052748,20.08813 Z M35.7052748,22.2320551 C35.7052748,22.5315821 36.0030173,23.0367136 36.5575605,23.0367136 C37.4432919,23.0367136 37.815422,22.2086202 37.815422,21.5066724 C37.815422,20.6555103 37.1374762,19.9464222 36.4916305,19.9464222 C36.1846615,19.9464222 35.9286298,20.1357321 35.7052748,20.3171693 L35.7052748,22.2320551 Z M0,27.7064791 L0.0634313237,27.7064791 C0.225277149,27.7064791 0.396349375,27.6856075 0.396349375,27.4622438 L0.396349375,25.2152418 C0.396349375,24.991512 0.225277149,24.9702741 0.0634313237,24.9702741 L0,24.9702741 L0,24.8415654 C0.175685426,24.8415654 0.445941098,24.8584092 0.667181727,24.8584092 C0.892074462,24.8584092 1.16194572,24.8415654 1.37357554,24.8415654 L1.37357554,24.9702741 L1.31033648,24.9702741 C1.14887507,24.9702741 0.977418427,24.991512 0.977418427,25.2152418 L0.977418427,27.4622438 C0.977418427,27.6856075 1.14887507,27.7064791 1.31033648,27.7064791 L1.37357554,27.7064791 L1.37357554,27.8357371 C1.15752479,27.8357371 0.886692435,27.8188933 0.662376379,27.8188933 C0.441520164,27.8188933 0.175685426,27.8357371 0,27.8357371 L0,27.7064791 Z M4.46748426,26.9902507 L4.47651839,26.9818288 L4.47651839,25.3736103 C4.47651839,25.021721 4.21952564,24.9702741 4.08458995,24.9702741 L3.98540651,24.9702741 L3.98540651,24.8415654 C4.19722859,24.8415654 4.40443735,24.8585923 4.61587502,24.8585923 C4.80040231,24.8585923 4.98569855,24.8415654 5.16984155,24.8415654 L5.16984155,24.9702741 L5.10275812,24.9702741 C4.91304094,24.9702741 4.70141113,25.0046941 4.70141113,25.5149519 L4.70141113,27.467004 C4.70141113,27.6169506 4.70602433,27.7668972 4.72812912,27.8998168 L4.55705689,27.8998168 L2.23816306,25.437507 L2.23816306,27.2050093 C2.23816306,27.5781366 2.31408848,27.7064791 2.66123055,27.7064791 L2.73754026,27.7064791 L2.73754026,27.8357371 C2.54417098,27.8357371 2.3508017,27.8188933 2.15685574,27.8188933 C1.95483674,27.8188933 1.74743571,27.8357371 1.54464776,27.8357371 L1.54464776,27.7064791 L1.60769467,27.7064791 C1.91831567,27.7064791 2.01269377,27.5052687 2.01269377,27.1625336 L2.01269377,25.3558511 C2.01269377,25.1160097 1.80510047,24.9702741 1.60327362,24.9702741 L1.54464776,24.9702741 L1.54464776,24.8415654 C1.71552784,24.8415654 1.89121327,24.8585923 2.06190108,24.8585923 C2.19722106,24.8585923 2.32812023,24.8415654 2.4630558,24.8415654 L4.46748426,26.9902507 Z M5.84432749,25.0559579 C5.50602729,25.0559579 5.49334105,25.1332197 5.42568094,25.4459289 L5.29074537,25.4459289 C5.30823696,25.3260082 5.33111069,25.2060876 5.34475803,25.0814067 C5.36301856,24.9611198 5.37166828,24.8415654 5.37166828,24.7172507 L5.47969372,24.7172507 C5.51602252,24.8461425 5.62846889,24.8415654 5.75071822,24.8415654 L8.07364857,24.8415654 C8.19551348,24.8415654 8.3077677,24.8373544 8.31718625,24.7084626 L8.424635,24.7256726 C8.4071433,24.8415654 8.38888276,24.957092 8.37523543,25.0731679 C8.36697012,25.1890606 8.36697012,25.3049534 8.36697012,25.4204801 L8.23165014,25.4680822 C8.22242374,25.3095306 8.19974227,25.0559579 7.89834755,25.0559579 L7.15985373,25.0559579 L7.15985373,27.337929 C7.15985373,27.6687636 7.31766303,27.7064791 7.53332937,27.7064791 L7.61886548,27.7064791 L7.61886548,27.8357371 C7.44337232,27.8357371 7.12794586,27.8188933 6.885177,27.8188933 C6.61492133,27.8188933 6.29949487,27.8357371 6.1236173,27.8357371 L6.1236173,27.7064791 L6.20915341,27.7064791 C6.45768871,27.7064791 6.58301346,27.6854244 6.58301346,27.3469003 L6.58301346,25.0559579 L5.84432749,25.0559579 Z M8.56860471,27.7064791 L8.63184377,27.7064791 C8.79388186,27.7064791 8.96514635,27.6856075 8.96514635,27.4622438 L8.96514635,25.2152418 C8.96514635,24.991512 8.79388186,24.9702741 8.63184377,24.9702741 L8.56860471,24.9702741 L8.56860471,24.8415654 C8.84270475,24.8415654 9.31209627,24.8584092 9.68960843,24.8584092 C10.0684662,24.8584092 10.5361277,24.8415654 10.8421356,24.8415654 C10.834447,25.0257488 10.8388679,25.3093475 10.8519386,25.497925 L10.716234,25.532345 C10.6945137,25.2536896 10.6406932,25.0306921 10.1674574,25.0306921 L9.54217876,25.0306921 L9.54217876,26.1541016 L10.0773081,26.1541016 C10.3473716,26.1541016 10.4063819,26.0087321 10.4331,25.7765804 L10.5678433,25.7765804 C10.5590014,25.9442862 10.5543882,26.1114428 10.5543882,26.2784163 C10.5543882,26.4419112 10.5590014,26.6046737 10.5678433,26.7676193 L10.4331,26.7930681 C10.4063819,26.5360168 10.3927345,26.3686772 10.0815369,26.3686772 L9.54217876,26.3686772 L9.54217876,27.367955 C9.54217876,27.6467934 9.80224706,27.6467934 10.090571,27.6467934 C10.6312746,27.6467934 10.8696224,27.6121904 11.0049425,27.1239028 L11.130844,27.1533794 C11.072026,27.3813202 11.0182054,27.6079794 10.9782245,27.8357371 C10.6895161,27.8357371 10.1716862,27.8188933 9.76687923,27.8188933 C9.36111131,27.8188933 8.82521317,27.8357371 8.56860471,27.8357371 L8.56860471,27.7064791 Z M11.738631,25.2959823 C11.738631,24.98309 11.5585246,24.9702741 11.4185913,24.9702741 L11.3374762,24.9702741 L11.3374762,24.8413823 C11.4816382,24.8413823 11.7607358,24.8585923 12.0356047,24.8585923 C12.3054759,24.8585923 12.5219112,24.8413823 12.7604513,24.8413823 C13.3274885,24.8413823 13.8324398,24.9871179 13.8324398,25.5967909 C13.8324398,25.9821848 13.5623764,26.2181813 13.2065845,26.3518334 L13.9764096,27.4490616 C14.1026955,27.6304989 14.1922681,27.6813965 14.4133166,27.7062961 L14.4133166,27.8357371 C14.2645414,27.8357371 14.1203794,27.8188933 13.9719886,27.8188933 C13.8324398,27.8188933 13.6878934,27.8357371 13.5489212,27.8357371 C13.2021636,27.402558 12.9042288,26.9393531 12.6118682,26.4453898 L12.315279,26.4453898 L12.315279,27.363744 C12.315279,27.6943955 12.4769327,27.7062961 12.683757,27.7062961 L12.7650644,27.7062961 L12.7650644,27.8357371 C12.5078795,27.8357371 12.2476189,27.8188933 11.9906261,27.8188933 C11.774191,27.8188933 11.5625612,27.8357371 11.3374762,27.8357371 L11.3374762,27.7062961 L11.4185913,27.7062961 C11.5858193,27.7062961 11.738631,27.6343437 11.738631,27.4754258 L11.738631,25.2959823 Z M12.315279,26.2908661 L12.5351741,26.2908661 C12.9859206,26.2908661 13.2284972,26.1282866 13.2284972,25.6218735 C13.2284972,25.2406906 12.9720811,24.9960891 12.5709262,24.9960891 C12.4356061,24.9960891 12.3779414,25.0092712 12.315279,25.013116 L12.315279,26.2908661 Z M17.4707043,26.9902507 L17.4787773,26.9818288 L17.4787773,25.3736103 C17.4787773,25.021721 17.2225534,24.9702741 17.0876177,24.9702741 L16.9888188,24.9702741 L16.9888188,24.8415654 C17.2004486,24.8415654 17.4068885,24.8585923 17.619095,24.8585923 C17.8040067,24.8585923 17.9877653,24.8415654 18.1738304,24.8415654 L18.1738304,24.9702741 L18.1057859,24.9702741 C17.9168375,24.9702741 17.7050156,25.0046941 17.7050156,25.5149519 L17.7050156,27.467004 C17.7050156,27.6169506 17.7092443,27.7668972 17.7315414,27.8998168 L17.5608536,27.8998168 L15.2417675,25.437507 L15.2417675,27.2050093 C15.2417675,27.5781366 15.3180773,27.7064791 15.664835,27.7064791 L15.7413369,27.7064791 L15.7413369,27.8357371 C15.5479677,27.8357371 15.3542139,27.8188933 15.1608446,27.8188933 C14.9574801,27.8188933 14.7504634,27.8357371 14.54806,27.8357371 L14.54806,27.7064791 L14.6105301,27.7064791 C14.9217279,27.7064791 15.0162982,27.5052687 15.0162982,27.1625336 L15.0162982,25.3558511 C15.0162982,25.1160097 14.8090893,24.9702741 14.6066859,24.9702741 L14.54806,24.9702741 L14.54806,24.8415654 C14.7185556,24.8415654 14.8950098,24.8585923 15.0660821,24.8585923 C15.2000567,24.8585923 15.331148,24.8415654 15.4666602,24.8415654 L17.4707043,26.9902507 Z M18.897908,27.2224024 C18.8521606,27.367955 18.7979557,27.4801861 18.7979557,27.5567157 C18.7979557,27.6856075 18.9872884,27.7064791 19.135487,27.7064791 L19.1858476,27.7064791 L19.1858476,27.8357371 C19.0053568,27.8263998 18.8214061,27.8190764 18.6399541,27.8190764 C18.4781083,27.8190764 18.3170313,27.8263998 18.1542243,27.8357371 L18.1542243,27.7064791 L18.181519,27.7064791 C18.3570122,27.7064791 18.5059796,27.6079794 18.5724864,27.4274576 L19.293873,25.4594772 C19.3517299,25.3007425 19.433614,25.0861669 19.4607164,24.9268829 C19.6041096,24.8803794 19.7846004,24.7946956 19.8701365,24.7430656 C19.8839761,24.7384885 19.891857,24.7340945 19.9060809,24.7340945 C19.9195361,24.7340945 19.9278014,24.7340945 19.9379887,24.7472766 C19.9514439,24.7815135 19.9641302,24.8201444 19.9787386,24.8543813 L20.8071895,27.0979046 C20.86101,27.2478512 20.9146382,27.4064029 20.9728797,27.5356609 C21.027469,27.6557646 21.1220394,27.7064791 21.2708145,27.7064791 L21.2977248,27.7064791 L21.2977248,27.8357371 C21.0951291,27.8263998 20.892149,27.8190764 20.6764827,27.8190764 C20.4560109,27.8190764 20.230157,27.8263998 20.000459,27.8357371 L20.000459,27.7064791 L20.0504351,27.7064791 C20.1534629,27.7064791 20.329725,27.6898184 20.329725,27.5823475 C20.329725,27.5268728 20.2891674,27.411163 20.2388068,27.2734832 L20.063698,26.7760413 L19.0414933,26.7760413 L18.897908,27.2224024 Z M19.5550945,25.3219803 L19.5458681,25.3219803 L19.1270295,26.5360168 L19.9685511,26.5360168 L19.5550945,25.3219803 Z M21.4958994,25.0559579 C21.1579838,25.0559579 21.1445286,25.1332197 21.0768686,25.4459289 L20.9415485,25.4459289 C20.9592323,25.3260082 20.9821061,25.2060876 20.9961378,25.0814067 C21.0140139,24.9611198 21.0224714,24.8415654 21.0224714,24.7172507 L21.1310735,24.7172507 C21.1668256,24.8461425 21.2798487,24.8415654 21.4009448,24.8415654 L23.7250283,24.8415654 C23.8461244,24.8415654 23.9585708,24.8373544 23.9677972,24.7084626 L24.0756304,24.7256726 C24.0583309,24.8415654 24.0402625,24.957092 24.0268075,25.0731679 C24.0168122,25.1890606 24.0168122,25.3049534 24.0168122,25.4204801 L23.8820688,25.4680822 C23.8738035,25.3095306 23.851122,25.0559579 23.5493429,25.0559579 L22.8106568,25.0559579 L22.8106568,27.337929 C22.8106568,27.6687636 22.9686584,27.7064791 23.1843247,27.7064791 L23.2700531,27.7064791 L23.2700531,27.8357371 C23.0943677,27.8357371 22.7793256,27.8188933 22.5359802,27.8188933 C22.2663011,27.8188933 21.9502981,27.8357371 21.7748048,27.8357371 L21.7748048,27.7064791 L21.8603409,27.7064791 C22.1084918,27.7064791 22.2343932,27.6854244 22.2343932,27.3469003 L22.2343932,25.0559579 L21.4958994,25.0559579 Z M24.241705,27.7064791 L24.3047518,27.7064791 C24.4673665,27.7064791 24.6376699,27.6856075 24.6376699,27.4622438 L24.6376699,25.2152418 C24.6376699,24.991512 24.4673665,24.9702741 24.3047518,24.9702741 L24.241705,24.9702741 L24.241705,24.8415654 C24.4177748,24.8415654 24.6874538,24.8584092 24.9077334,24.8584092 C25.1335872,24.8584092 25.4036507,24.8415654 25.6156649,24.8415654 L25.6156649,24.9702741 L25.552618,24.9702741 C25.3901955,24.9702741 25.2187389,24.991512 25.2187389,25.2152418 L25.2187389,27.4622438 C25.2187389,27.6856075 25.3901955,27.7064791 25.552618,27.7064791 L25.6156649,27.7064791 L25.6156649,27.8357371 C25.3992297,27.8357371 25.128974,27.8188933 24.9040812,27.8188933 C24.6830329,27.8188933 24.4177748,27.8357371 24.241705,27.8357371 L24.241705,27.7064791 Z M27.411539,24.7774856 C28.3716579,24.7774856 29.1366775,25.3439505 29.1366775,26.2575446 C29.1366775,27.2441895 28.3935705,27.9 27.434797,27.9 C26.4792914,27.9 25.7502161,27.2824543 25.7502161,26.3602553 C25.7502161,25.4682652 26.4750626,24.7774856 27.411539,24.7774856 Z M27.4795834,27.7112394 C28.3533973,27.7112394 28.5054402,26.9772517 28.5054402,26.3520164 C28.5054402,25.7247673 28.1508017,24.96588 27.4028893,24.96588 C26.6146115,24.96588 26.3806846,25.6352387 26.3806846,26.2093932 C26.3806846,26.9772517 26.7499315,27.7112394 27.4795834,27.7112394 Z M32.1711915,26.9902507 L32.1804179,26.9818288 L32.1804179,25.3736103 C32.1804179,25.021721 31.9230406,24.9702741 31.7879127,24.9702741 L31.6902671,24.9702741 L31.6902671,24.8415654 C31.9011281,24.8415654 32.1085291,24.8585923 32.31939,24.8585923 C32.5048785,24.8585923 32.6894058,24.8415654 32.8743176,24.8415654 L32.8743176,24.9702741 L32.8062732,24.9702741 C32.617517,24.9702741 32.4055027,25.0046941 32.4055027,25.5149519 L32.4055027,27.467004 C32.4055027,27.6169506 32.4097315,27.7668972 32.4326053,27.8998168 L32.2617252,27.8998168 L29.9420625,25.437507 L29.9420625,27.2050093 C29.9420625,27.5781366 30.0187568,27.7064791 30.36513,27.7064791 L30.4420164,27.7064791 L30.4420164,27.8357371 C30.2482626,27.8357371 30.0550856,27.8188933 29.8613319,27.8188933 C29.6587362,27.8188933 29.4509506,27.8357371 29.2481628,27.8357371 L29.2481628,27.7064791 L29.3117863,27.7064791 C29.622984,27.7064791 29.7165932,27.5052687 29.7165932,27.1625336 L29.7165932,25.3558511 C29.7165932,25.1160097 29.5105376,24.9702741 29.3069809,24.9702741 L29.2481628,24.9702741 L29.2481628,24.8415654 C29.4196195,24.8415654 29.5953049,24.8585923 29.766185,24.8585923 C29.9011205,24.8585923 30.031443,24.8415654 30.1669553,24.8415654 L32.1711915,26.9902507 Z M33.5978186,27.2224024 C33.553609,27.367955 33.4990195,27.4801861 33.4990195,27.5567157 C33.4990195,27.6856075 33.6887368,27.7064791 33.8363586,27.7064791 L33.8867193,27.7064791 L33.8867193,27.8357371 C33.7064207,27.8263998 33.5215088,27.8190764 33.3414025,27.8190764 C33.1787877,27.8190764 33.0173263,27.8263998 32.8558649,27.8357371 L32.8558649,27.7064791 L32.8814296,27.7064791 C33.0576916,27.7064791 33.2068512,27.6079794 33.273358,27.4274576 L33.9949369,25.4594772 C34.0531783,25.3007425 34.1346779,25.0861669 34.1608192,24.9268829 C34.3051735,24.8803794 34.4850877,24.7946956 34.5713926,24.7430656 C34.5842711,24.7384885 34.5933053,24.7340945 34.6069526,24.7340945 C34.6204077,24.7340945 34.6290574,24.7340945 34.6380916,24.7472766 C34.651739,24.7815135 34.6655784,24.8201444 34.6792258,24.8543813 L35.5072924,27.0979046 C35.561305,27.2478512 35.6151255,27.4064029 35.6743281,27.5356609 C35.7283407,27.6557646 35.8232954,27.7064791 35.971494,27.7064791 L35.9989808,27.7064791 L35.9989808,27.8357371 C35.7960007,27.8263998 35.5932129,27.8190764 35.3767776,27.8190764 C35.1566903,27.8190764 34.9310288,27.8263998 34.7013307,27.8357371 L34.7013307,27.7064791 L34.7511146,27.7064791 C34.8539501,27.7064791 35.0307889,27.6898184 35.0307889,27.5823475 C35.0307889,27.5268728 34.9898469,27.411163 34.9396785,27.2734832 L34.7647619,26.7760413 L33.7423651,26.7760413 L33.5978186,27.2224024 Z M34.2559662,25.3219803 L34.246932,25.3219803 L33.8275168,26.5360168 L34.6703839,26.5360168 L34.2559662,25.3219803 Z M37.1336319,27.4151909 C37.1336319,27.5871077 37.2587645,27.6381884 37.4029264,27.6557646 C37.587646,27.6687636 37.7902417,27.6687636 37.9980272,27.6469765 C38.1867833,27.6253724 38.3488214,27.5226618 38.4297443,27.4151909 C38.5016331,27.3207191 38.5419984,27.2007984 38.5694854,27.1063265 L38.7,27.1063265 C38.6506005,27.350745 38.5873615,27.5915018 38.5329643,27.8357371 C38.1377683,27.8357371 37.7400734,27.8190764 37.3448773,27.8190764 C36.9479512,27.8190764 36.5521785,27.8357371 36.1558291,27.8357371 L36.1558291,27.7064791 L36.2179148,27.7064791 C36.3807218,27.7064791 36.5567917,27.6856075 36.5567917,27.4194019 L36.5567917,25.2150587 C36.5567917,24.991512 36.3807218,24.9702741 36.2179148,24.9702741 L36.1558291,24.9702741 L36.1558291,24.8415654 C36.3939847,24.8415654 36.6284882,24.8585923 36.866836,24.8585923 C37.0973031,24.8585923 37.3220035,24.8415654 37.5518939,24.8415654 L37.5518939,24.9702741 L37.4386787,24.9702741 C37.2679909,24.9702741 37.1336319,24.9750343 37.1336319,25.2018766 L37.1336319,27.4151909 Z" id="Shape" fill="#FFFFFF" fill-rule="nonzero"></path>
                        </g>
                    </g>
                </g>
            </g>
        </g>
    </g>
</svg>