<?xml version="1.0" encoding="UTF-8"?>
<svg width="38px" height="29px" viewBox="0 0 38 29" version="1.1" xmlns="http://www.w3.org/2000/svg" xmlns:xlink="http://www.w3.org/1999/xlink">
    <!-- Generator: Sketch 57.1 (83088) - https://sketch.com -->
    <title>mc_vrt</title>
    <desc>Created with Sketch.</desc>
    <g id="Page-1" stroke="none" stroke-width="1" fill="none" fill-rule="evenodd">
        <g id="Footer-metodos-de-pago-Web" transform="translate(-340.000000, -324.000000)">
            <g id="Group-17" transform="translate(-4.000000, 0.000000)">
                <g id="Group-16">
                    <g id="Group-13" transform="translate(318.320000, 320.200000)">
                        <g id="mc_vrt" transform="translate(22.100000, 0.000000)">
                            <rect id="Rectangle" x="0" y="0" width="45" height="36.9"></rect>
                            <path d="M10.9205649,32.2381295 L10.9205649,30.2956834 C10.9421255,29.965207 10.8287668,29.6408555 10.6094086,29.4053769 C10.3900504,29.1698983 10.0859056,29.0460644 9.77456727,29.0654676 C9.36427395,29.0368968 8.97185979,29.2477868 8.75048429,29.6158273 C8.54865335,29.2587602 8.17909424,29.0475827 7.78735862,29.0654676 C7.44627723,29.0471526 7.12157105,29.2220659 6.93395613,29.5251798 L6.93395613,29.1431655 L6.3,29.1431655 L6.3,32.2381295 L6.94005187,32.2381295 L6.94005187,30.5352518 C6.91248647,30.3209644 6.9764061,30.1047919 7.11436763,29.9457257 C7.25232916,29.7866596 7.44993218,29.7013032 7.65325252,29.7129496 C8.07385803,29.7129496 8.28720865,30.0043165 8.28720865,30.528777 L8.28720865,32.2510791 L8.92726051,32.2510791 L8.92726051,30.5352518 C8.90082624,30.3212081 8.96513672,30.105736 9.10284246,29.9469648 C9.2405482,29.7881936 9.43746204,29.7024807 9.64046116,29.7129496 C10.0732581,29.7129496 10.280513,30.0043165 10.280513,30.528777 L10.280513,32.2510791 L10.9205649,32.2381295 Z M20.3902846,29.1431655 L19.3479145,29.1431655 L19.3479145,28.2043165 L18.7078626,28.2043165 L18.7078626,29.1431655 L18.128768,29.1431655 L18.128768,29.7582734 L18.7200541,29.7582734 L18.7200541,31.1827338 C18.7200541,31.9014388 18.9821705,32.3287858 19.7319456,32.3287858 C20.0120623,32.3297764 20.286751,32.2467338 20.5243907,32.0892086 L20.3415188,31.5129496 C20.1715098,31.6206614 19.9785578,31.6808102 19.7807114,31.6877697 C19.4759248,31.6877697 19.3601059,31.4805755 19.3601059,31.1697841 L19.3601059,29.7582734 L20.3963804,29.7582734 L20.3902846,29.1431655 Z M25.797199,29.0654676 C25.4823292,29.0556315 25.1876206,29.2295406 25.0291367,29.518705 L25.0291367,29.1431655 L24.4012763,29.1431655 L24.4012763,32.2381295 L25.0352325,32.2381295 L25.0352325,30.5028777 C25.0352325,29.9913669 25.2424874,29.7064748 25.6448057,29.7064748 C25.7804004,29.7045047 25.915034,29.7309059 26.0410283,29.7841726 L26.2360917,29.1366906 C26.0913095,29.0816754 25.9387739,29.0532121 25.7850075,29.052518 L25.797199,29.0654676 Z M17.6228223,29.3892086 C17.2639742,29.1625825 16.8513921,29.0502132 16.4341545,29.0654676 C15.696571,29.0654676 15.2150081,29.4410072 15.2150081,30.0561151 C15.2150081,30.5611511 15.5685606,30.8719424 16.2208039,30.9690647 L16.5255905,31.0143885 C16.8730472,31.066187 17.037632,31.1633093 17.037632,31.3381295 C17.037632,31.5776978 16.8059942,31.713669 16.3731972,31.713669 C16.0250707,31.7243726 15.6836795,31.6103405 15.4039758,31.389928 L15.0991892,31.9143884 C15.4684729,32.1882703 15.9107816,32.328988 16.3610058,32.3158273 C17.2022168,32.3158273 17.6898753,31.894964 17.6898753,31.3057554 C17.6898753,30.7165467 17.3058442,30.4769784 16.6718881,30.3798561 L16.3671015,30.3345323 C16.0927935,30.2956834 15.8733472,30.23741 15.8733472,30.0302158 C15.8733472,29.8230216 16.0806021,29.6676259 16.4280588,29.6676259 C16.749205,29.6715885 17.0640253,29.7629908 17.3424186,29.9330935 L17.6228223,29.3892086 Z M34.6024839,29.0654676 C34.2876142,29.0556315 33.9929055,29.2295406 33.8344217,29.518705 L33.8344217,29.1431655 L33.2065613,29.1431655 L33.2065613,32.2381295 L33.8405174,32.2381295 L33.8405174,30.5028777 C33.8405174,29.9913669 34.0477723,29.7064748 34.4500906,29.7064748 C34.5856854,29.7045047 34.720319,29.7309059 34.8463132,29.7841726 L35.0413766,29.1366906 C34.8965945,29.0816754 34.7440588,29.0532121 34.5902925,29.052518 L34.6024839,29.0654676 Z M26.434203,30.6841726 C26.4189569,31.1239537 26.5788866,31.5502001 26.8747366,31.8582869 C27.1705865,32.1663737 27.5749649,32.3277764 27.9886146,32.3028777 C28.3692561,32.3234481 28.7433376,32.1917697 29.0370806,31.9338129 L28.732294,31.389928 C28.5131435,31.5674388 28.2459102,31.665084 27.9703274,31.6683453 C27.4844064,31.6265838 27.1100942,31.1955246 27.1100942,30.6776978 C27.1100942,30.159871 27.4844064,29.7288119 27.9703274,29.6870503 C28.2459102,29.6903116 28.5131435,29.7879568 28.732294,29.9654676 L29.0370806,29.4215827 C28.7433376,29.1636259 28.3692561,29.0319475 27.9886146,29.052518 C27.5749649,29.0276192 27.1705865,29.1890219 26.8747366,29.4971087 C26.5788866,29.8051955 26.4189569,30.2314419 26.434203,30.671223 L26.434203,30.6841726 Z M32.371446,30.6841726 L32.371446,29.1431655 L31.7374899,29.1431655 L31.7374899,29.518705 C31.5190808,29.2201996 31.1788088,29.0515308 30.82313,29.0654676 C29.9814851,29.0654676 29.299197,29.7901865 29.299197,30.6841726 C29.299197,31.5781587 29.9814851,32.3028777 30.82313,32.3028777 C31.1788088,32.3168145 31.5190808,32.1481456 31.7374899,31.8496402 L31.7374899,32.2251798 L32.371446,32.2251798 L32.371446,30.6841726 Z M30.0123977,30.6841726 C30.0405889,30.1761157 30.4459389,29.785179 30.924743,29.8042681 C31.4035471,29.8233572 31.7801668,30.2454697 31.7724233,30.7543418 C31.7646798,31.263214 31.3754136,31.6721774 30.8962788,31.6748201 C30.6523091,31.678099 30.418137,31.5729964 30.2503026,31.3848888 C30.0824682,31.1967812 29.9962256,30.9427655 30.0123977,30.6841726 L30.0123977,30.6841726 Z M22.362254,29.0654676 C21.520609,29.0779834 20.847873,29.8128484 20.859656,30.7068345 C20.871439,31.6008206 21.5632791,32.3153935 22.4049241,32.3028777 C22.8434326,32.3267856 23.2746648,32.1767943 23.6149269,31.8820143 L23.3101403,31.3834532 C23.0694692,31.5884715 22.7713086,31.7023934 22.4628335,31.7071942 C22.0271004,31.7469982 21.6406962,31.4111883 21.5911439,30.9496403 L23.7551287,30.9496403 C23.7551287,30.8654676 23.7551287,30.7812949 23.7551287,30.6906475 C23.7551287,29.7194244 23.1882257,29.0719424 22.3713976,29.0719424 L22.362254,29.0654676 Z M22.362254,29.6676259 C22.5538437,29.6632872 22.7392049,29.7399916 22.8775381,29.8808559 C23.0158713,30.0217202 23.0958382,30.2151985 23.0998375,30.418705 L21.5759045,30.418705 C21.5988636,29.9864536 21.9427086,29.6528592 22.3500625,29.6676259 L22.362254,29.6676259 Z M38.2446838,30.6906475 L38.2446838,27.9 L37.6351106,27.9 L37.6351106,29.518705 C37.4167016,29.2201996 37.0764295,29.0515308 36.7207508,29.0654676 C35.8791058,29.0654676 35.1968178,29.7901865 35.1968178,30.6841726 C35.1968178,31.5781587 35.8791058,32.3028777 36.7207508,32.3028777 C37.0764295,32.3168145 37.4167016,32.1481456 37.6351106,31.8496402 L37.6351106,32.2251798 L38.2446838,32.2251798 L38.2446838,30.6906475 Z M39.3022933,31.7881295 C39.3419195,31.7876138 39.3812601,31.7953114 39.4181122,31.8107913 C39.4531148,31.8259631 39.4851545,31.8479194 39.5125961,31.8755395 C39.5393774,31.9034529 39.5610763,31.936379 39.5766013,31.9726618 C39.6077996,32.04908 39.6077996,32.135812 39.5766013,32.2122302 C39.5610763,32.248513 39.5393774,32.2814391 39.5125961,32.3093525 C39.4851545,32.3369726 39.4531148,32.3589289 39.4181122,32.3741007 C39.3816239,32.3912024 39.3421759,32.4000237 39.3022933,32.4 C39.1843561,32.3990557 39.0775171,32.3259221 39.0279854,32.2122302 C38.9971483,32.1357328 38.9971483,32.0491592 39.0279854,31.9726618 C39.0435104,31.936379 39.0652092,31.9034529 39.0919906,31.8755395 C39.1194322,31.8479194 39.1514719,31.8259631 39.1864744,31.8107913 C39.2261729,31.7940178 39.2687478,31.7862968 39.3114369,31.7881295 L39.3022933,31.7881295 Z M39.3022933,32.3352518 C39.3327139,32.335448 39.3628317,32.3288293 39.3906814,32.3158273 C39.4169042,32.3033916 39.4406861,32.2858188 39.4607824,32.2640287 C39.5398126,32.1724401 39.5398126,32.0318764 39.4607824,31.9402877 C39.440734,31.9184375 39.4169406,31.9008563 39.3906814,31.8884892 C39.3628042,31.8755788 39.3327049,31.8689641 39.3022933,31.8690636 C39.271908,31.8692353 39.2418597,31.8758388 39.2139052,31.8884892 C39.1865215,31.9004158 39.1616532,31.9180257 39.1407564,31.9402877 C39.0617262,32.0318764 39.0617262,32.1724401 39.1407564,32.2640287 C39.1617046,32.2862243 39.1865596,32.3038247 39.2139052,32.3158273 C39.2446551,32.3299126 39.2779719,32.336548 39.3114369,32.3352518 L39.3022933,32.3352518 Z M39.3205805,31.95 C39.3490328,31.9485344 39.3770699,31.9576977 39.399825,31.9758992 C39.418753,31.9925382 39.4289661,32.0178508 39.4272558,32.0438848 C39.4281406,32.0656257 39.4204013,32.0867644 39.4059208,32.1021582 C39.3882548,32.1192019 39.3657184,32.129461 39.3419156,32.1312949 L39.4303037,32.2381295 L39.3602028,32.2381295 L39.2779104,32.1312949 L39.2504796,32.1312949 L39.2504796,32.2381295 L39.1925702,32.2381295 L39.1925702,31.9532374 L39.3205805,31.95 Z M39.2535275,32.0050359 L39.2535275,32.0827338 L39.3205805,32.0827338 C39.3325125,32.0865124 39.345223,32.0865124 39.3571549,32.0827338 C39.3615021,32.0735704 39.3615021,32.0627605 39.3571549,32.0535971 C39.3615021,32.0444337 39.3615021,32.0336238 39.3571549,32.0244604 C39.345223,32.0206817 39.3325125,32.0206817 39.3205805,32.0244604 L39.2535275,32.0050359 Z M35.9008748,30.6906475 C35.9290661,30.1825905 36.3344161,29.7916538 36.8132202,29.8107429 C37.2920243,29.829832 37.6686439,30.2519445 37.6609004,30.7608167 C37.6531569,31.2696888 37.2638908,31.6786522 36.784756,31.6812949 C36.5407862,31.6845739 36.3066142,31.5794712 36.1387798,31.3913636 C35.9709453,31.2032561 35.8847027,30.9492403 35.9008748,30.6906475 L35.9008748,30.6906475 Z M14.4957117,30.6906475 L14.4957117,29.1431655 L13.8617556,29.1431655 L13.8617556,29.518705 C13.6433466,29.2201996 13.3030745,29.0515308 12.9473958,29.0654676 C12.1057508,29.0654676 11.4234628,29.7901865 11.4234628,30.6841726 C11.4234628,31.5781587 12.1057508,32.3028777 12.9473958,32.3028777 C13.3030745,32.3168145 13.6433466,32.1481456 13.8617556,31.8496402 L13.8617556,32.2251798 L14.4957117,32.2251798 L14.4957117,30.6906475 Z M12.1366634,30.6906475 C12.1648547,30.1825905 12.5702047,29.7916538 13.0490088,29.8107429 C13.5278129,29.829832 13.9044325,30.2519445 13.896689,30.7608167 C13.8889455,31.2696888 13.4996794,31.6786522 13.0205446,31.6812949 C12.7755234,31.6864043 12.5397211,31.5821029 12.3705349,31.3937791 C12.2013487,31.2054552 12.1142965,30.950382 12.1305677,30.6906475 L12.1366634,30.6906475 Z" id="Shape" fill="#FFFFFF" fill-rule="nonzero"></path>
                            <g id="_Group_" transform="translate(4.500000, 4.500000)" fill="#FFFFFF">
                                <rect id="Rectangle" stroke="#102450" stroke-width="0.54" x="13.1230769" y="2.41952055" width="9.69230769" height="17.4482877"></rect>
                                <path d="M13.7384615,11.1452055 C13.7348377,7.7398435 15.2950289,4.52205131 17.9692308,2.41952055 C13.4276278,-1.15580596 6.90570379,-0.635028734 2.98689166,3.61586398 C-0.93192047,7.8667567 -0.93192047,14.4205721 2.98689166,18.6714648 C6.90570379,22.9223575 13.4276278,23.4431347 17.9692308,19.8678082 C15.2958796,17.7659449 13.7357838,14.5494858 13.7384615,11.1452055 L13.7384615,11.1452055 Z" id="_Path_" stroke="#2A335A" stroke-width="0.54"></path>
                                <path d="M35.8923077,11.1452055 C35.8923077,15.3935077 33.470591,19.2688306 29.6559247,21.1253098 C25.8412584,22.9817889 21.3032584,22.493495 17.9692308,19.8678082 C20.6414155,17.7641605 22.2016287,14.5481291 22.2016287,11.1436644 C22.2016287,7.73919971 20.6414155,4.52316827 17.9692308,2.41952055 C21.3032584,-0.206166213 25.8412584,-0.694460165 29.6559247,1.16201901 C33.470591,3.01849818 35.8923077,6.89382112 35.8923077,11.1421233 L35.8923077,11.1452055 Z" id="Path" stroke="#2A335A" stroke-width="0.54"></path>
                                <path d="M34.8338462,18.0184932 L34.8338462,17.6609589 L34.9784615,17.6609589 L34.9784615,17.5869863 L34.6123077,17.5869863 L34.6123077,17.6609589 L34.7692308,17.6609589 L34.7692308,18.0184932 L34.8338462,18.0184932 Z M35.5446154,18.0184932 L35.5446154,17.5869863 L35.4338462,17.5869863 L35.3046154,17.8952055 L35.1753846,17.5869863 L35.0769231,17.5869863 L35.0769231,18.0184932 L35.1569231,18.0184932 L35.1569231,17.694863 L35.2769231,17.9753425 L35.36,17.9753425 L35.48,17.694863 L35.48,18.0215753 L35.5446154,18.0184932 Z" id="Shape" fill-rule="nonzero"></path>
                            </g>
                        </g>
                    </g>
                </g>
            </g>
        </g>
    </g>
</svg>