<?xml version="1.0" encoding="UTF-8"?>
<svg width="59px" height="20px" viewBox="0 0 59 20" version="1.1" xmlns="http://www.w3.org/2000/svg" xmlns:xlink="http://www.w3.org/1999/xlink">
    <!-- Generator: Sketch 57.1 (83088) - https://sketch.com -->
    <title>visa_foooter</title>
    <desc>Created with Sketch.</desc>
    <g id="Page-1" stroke="none" stroke-width="1" fill="none" fill-rule="evenodd">
        <g id="Footer-metodos-de-pago-Web" transform="translate(-60.000000, -326.000000)" fill="#FFFFFF" fill-rule="nonzero">
            <g id="Group-17" transform="translate(-4.000000, 0.000000)">
                <g id="Group-16">
                    <g id="Group-15" transform="translate(64.400000, 326.500000)">
                        <g id="Group-14">
                            <g id="visa_foooter" transform="translate(0.000000, 0.000000)">
                                <path d="M30.2548047,12.8577646 C30.2214281,10.2250511 32.5999339,8.75579318 34.3917183,7.88232285 C36.2326889,6.98600519 36.85103,6.4113074 36.8440034,5.60989397 C36.8299501,4.38316904 35.3754429,3.84186348 34.0140382,3.82077366 C31.6390459,3.78386645 30.2583177,4.4622559 29.1604109,4.97544169 L28.3049218,0.970132042 C29.4063419,0.462218707 31.4458142,0.0193323414 33.5608223,0 C38.5251186,0 41.7731668,2.45169237 41.7907334,6.25313371 C41.8100565,11.0774316 35.1207287,11.3445694 35.1664014,13.5010042 C35.1822112,14.1547889 35.8058226,14.8525107 37.1724971,15.0300167 C37.8488078,15.1196484 39.7161283,15.1881904 41.832893,14.2127859 L42.663789,18.0880416 C41.5254789,18.5028082 40.0621885,18.9 38.2405412,18.9 C33.5678489,18.9 30.2811544,16.4149154 30.2548047,12.8577646 M50.6477689,18.5660777 C49.7413368,18.5660777 48.9771936,18.0370746 48.6364032,17.2251162 L41.5448019,0.284712664 L46.5055853,0.284712664 L47.4928233,3.01408778 L53.5550268,3.01408778 L54.1276949,0.284712664 L58.5,0.284712664 L54.6845534,18.5660777 L50.6477689,18.5660777 M51.3416461,13.6275432 L52.7733169,6.76280452 L48.8524714,6.76280452 L51.3416461,13.6275432 M24.2400305,18.5660777 L20.329725,0.284712664 L25.0568733,0.284712664 L28.9654224,18.5660777 L24.2400305,18.5660777 M17.246802,18.5660777 L12.3264219,6.12307976 L10.336136,16.703143 C10.1025014,17.8841732 9.18025946,18.5660777 8.15613177,18.5660777 L0.11242568,18.5660777 L0,18.035317 C1.65125218,17.67679 3.52735572,17.0985772 4.66390907,16.4799423 C5.35954297,16.1020829 5.55804455,15.7716756 5.78640922,14.8736005 L9.55618281,0.284712664 L14.5520989,0.284712664 L22.2110984,18.5660777 L17.246802,18.5660777" id="Shape" transform="translate(29.250000, 9.450000) scale(-1, 1) rotate(-180.000000) translate(-29.250000, -9.450000) "></path>
                            </g>
                        </g>
                    </g>
                </g>
            </g>
        </g>
    </g>
</svg>